<svg width="84" height="32" viewBox="0 0 84 32" fill="none" xmlns="http://www.w3.org/2000/svg">
<path d="M4.52905 4.28527L0.529054 6.42069C0.203389 6.59454 0 6.93368 0 7.30285V22.8515C0 23.205 0.186644 23.5323 0.490914 23.7122L8.04595 28.1808C8.37599 28.376 8.78858 28.3653 9.10805 28.1533L12.7165 25.7581C13.3198 25.3577 13.3108 24.4687 12.6994 24.0807L6.46409 20.1227C6.17509 19.9393 6 19.6207 6 19.2784V5.16743C6 4.41233 5.19517 3.92966 4.52905 4.28527Z" fill="#8B3DFF"/>
<path d="M15.53 13.2062L9.53 9.45625C8.86395 9.03997 8 9.51881 8 10.3042V14.6095C8 14.9703 8.19443 15.3032 8.50875 15.4805L10.3511 16.5195C10.6654 16.6968 10.8598 17.0297 10.8598 17.3905V19.4268C10.8598 19.7554 11.0213 20.0631 11.2917 20.2498L14.4319 22.4175C15.0952 22.8754 16 22.4006 16 21.5945V14.0542C16 13.7095 15.8224 13.389 15.53 13.2062Z" fill="#8B3DFF"/>
<text x="25" y="25" font-family="Arial, sans-serif" font-size="30" fill="#0F172A">
    ariv
  </text>
</svg>
